<svg width="1600" height="1040" viewBox="0 0 1600 1040" fill="none" xmlns="http://www.w3.org/2000/svg">
  <defs>
    <linearGradient id="bg" x1="0" y1="0" x2="1600" y2="1040" gradientUnits="userSpaceOnUse">
      <stop stop-color="#F6F2FF"/>
      <stop offset="1" stop-color="#F4F5F8"/>
    </linearGradient>
    <linearGradient id="hero" x1="210" y1="20" x2="1400" y2="420" gradientUnits="userSpaceOnUse">
      <stop stop-color="#B51ED6"/>
      <stop offset="1" stop-color="#5D20D7"/>
    </linearGradient>
    <linearGradient id="cta" x1="0" y1="0" x2="1" y2="1">
      <stop stop-color="#8E2DE2"/>
      <stop offset="1" stop-color="#C83CF4"/>
    </linearGradient>
  </defs>
  <rect width="1600" height="1040" rx="28" fill="url(#bg)"/>

  <rect x="176" y="32" width="1248" height="304" rx="34" fill="url(#hero)"/>
  <rect x="202" y="58" width="114" height="34" rx="17" fill="#FFFFFF" opacity="0.95"/>
  <text x="259" y="81" fill="#9E18C7" font-size="16" font-weight="700" font-family="Arial, sans-serif" text-anchor="middle">Painel de cardápio</text>
  <text x="202" y="132" fill="#FFFFFF" font-size="54" font-weight="700" font-family="Arial, sans-serif">Produtos do estabelecimento</text>
  <text x="202" y="176" fill="#EAD7FF" font-size="18" font-family="Arial, sans-serif">Fluxo visual para cardápio público, cadastro rápido, leitura de preço, sabores, tamanhos, adicionais e gestão contínua.</text>

  <rect x="1248" y="124" width="176" height="56" rx="20" fill="#FFFFFF"/>
  <text x="1336" y="158" fill="#202944" font-size="16" font-weight="700" font-family="Arial, sans-serif" text-anchor="middle">Organizar categorias</text>

  <g>
    <rect x="202" y="196" width="394" height="116" rx="22" fill="#FFFFFF" opacity="0.12" stroke="#D98DFF"/>
    <rect x="614" y="196" width="394" height="116" rx="22" fill="#FFFFFF" opacity="0.12" stroke="#D98DFF"/>
    <rect x="1026" y="196" width="394" height="116" rx="22" fill="#FFFFFF" opacity="0.12" stroke="#D98DFF"/>

    <text x="222" y="228" fill="#F6D6FF" font-size="14" letter-spacing="2" font-family="Arial, sans-serif">PRODUTOS ATIVOS</text>
    <text x="634" y="228" fill="#F6D6FF" font-size="14" letter-spacing="2" font-family="Arial, sans-serif">COM IMAGEM</text>
    <text x="1046" y="228" fill="#F6D6FF" font-size="14" letter-spacing="2" font-family="Arial, sans-serif">CATEGORIAS</text>

    <text x="222" y="276" fill="#FFFFFF" font-size="54" font-weight="700" font-family="Arial, sans-serif">20</text>
    <text x="634" y="276" fill="#FFFFFF" font-size="54" font-weight="700" font-family="Arial, sans-serif">20</text>
    <text x="1046" y="276" fill="#FFFFFF" font-size="54" font-weight="700" font-family="Arial, sans-serif">8</text>

    <text x="222" y="304" fill="#F1DBFF" font-size="15" font-family="Arial, sans-serif">Itens prontos para aparecer no cardápio.</text>
    <text x="634" y="304" fill="#F1DBFF" font-size="15" font-family="Arial, sans-serif">Produtos com mais impacto visual de conversão.</text>
    <text x="1046" y="304" fill="#F1DBFF" font-size="15" font-family="Arial, sans-serif">Base pronta para segmentar o menu.</text>
  </g>

  <rect x="176" y="370" width="452" height="600" rx="26" fill="#FFFFFF" stroke="#E6E8EF"/>
  <rect x="648" y="370" width="776" height="600" rx="26" fill="#FFFFFF" stroke="#E6E8EF"/>
  <line x1="176" y1="480" x2="628" y2="480" stroke="#ECECF1"/>
  <line x1="648" y1="480" x2="1424" y2="480" stroke="#ECECF1"/>

  <text x="202" y="416" fill="#0E1830" font-size="22" font-weight="700" font-family="Arial, sans-serif">Novo produto</text>
  <text x="202" y="444" fill="#5D6D86" font-size="16" font-family="Arial, sans-serif">Cadastro direto com imagem, categoria, preço, descrição e estrutura para variações.</text>

  <text x="202" y="538" fill="#1C2840" font-size="16" font-weight="700" font-family="Arial, sans-serif">Nome do produto</text>
  <rect x="202" y="558" width="364" height="48" rx="16" fill="#FFFFFF" stroke="#D6DCEC"/>
  <text x="222" y="590" fill="#A1AABC" font-size="16" font-family="Arial, sans-serif">Ex: Pizza quatro queijos</text>
  <text x="202" y="652" fill="#1C2840" font-size="16" font-weight="700" font-family="Arial, sans-serif">Preço base</text>
  <text x="394" y="652" fill="#1C2840" font-size="16" font-weight="700" font-family="Arial, sans-serif">Categoria</text>
  <rect x="202" y="670" width="176" height="48" rx="16" fill="#FFFFFF" stroke="#D6DCEC"/>
  <rect x="394" y="670" width="172" height="48" rx="16" fill="#FFFFFF" stroke="#D6DCEC"/>
  <text x="222" y="702" fill="#A1AABC" font-size="16" font-family="Arial, sans-serif">Ex: 15,00</text>
  <text x="414" y="702" fill="#39445B" font-size="16" font-family="Arial, sans-serif">Selecione</text>
  <text x="202" y="770" fill="#1C2840" font-size="16" font-weight="700" font-family="Arial, sans-serif">Descrição</text>
  <rect x="202" y="788" width="364" height="112" rx="18" fill="#FFFFFF" stroke="#D6DCEC"/>
  <text x="222" y="824" fill="#A1AABC" font-size="16" font-family="Arial, sans-serif">Ex: massa, sabores, borda opcional...</text>
  <text x="202" y="946" fill="#1C2840" font-size="16" font-weight="700" font-family="Arial, sans-serif">Imagem</text>

  <text x="676" y="416" fill="#0E1830" font-size="22" font-weight="700" font-family="Arial, sans-serif">Catálogo atual</text>
  <text x="676" y="444" fill="#5D6D86" font-size="16" font-family="Arial, sans-serif">Produtos com leitura rápida de categoria, status, preço e atalhos para tamanhos, sabores e adicionais.</text>

  <g>
    <rect x="676" y="510" width="720" height="196" rx="24" fill="#FFFFFF" stroke="#E7E9F0"/>
    <rect x="696" y="534" width="96" height="96" rx="22" fill="#F7EAD9"/>
    <circle cx="744" cy="582" r="34" fill="#7B2A12"/>
    <ellipse cx="744" cy="584" rx="30" ry="18" fill="#B86A1C"/>
    <ellipse cx="744" cy="560" rx="34" ry="12" fill="#FFE099"/>
    <text x="812" y="562" fill="#0E1830" font-size="22" font-weight="700" font-family="Arial, sans-serif">Açaí</text>
    <rect x="868" y="542" width="54" height="26" rx="13" fill="#F7E8FF"/>
    <rect x="936" y="542" width="58" height="26" rx="13" fill="#E6FAF0"/>
    <text x="895" y="560" fill="#A61FD2" font-size="14" font-family="Arial, sans-serif" text-anchor="middle">Açaí</text>
    <text x="965" y="560" fill="#179D64" font-size="14" font-family="Arial, sans-serif" text-anchor="middle">Ativo</text>
    <text x="812" y="600" fill="#5D6D86" font-size="16" font-family="Arial, sans-serif">Produto com tamanhos, sabores e adicionais configuráveis.</text>
    <rect x="812" y="626" width="132" height="44" rx="18" fill="#FFFFFF" stroke="#D7DDEC"/>
    <rect x="958" y="626" width="124" height="44" rx="18" fill="#FFFFFF" stroke="#D7DDEC"/>
    <rect x="812" y="684" width="124" height="44" rx="18" fill="#FFFFFF" stroke="#D7DDEC"/>
    <text x="878" y="654" fill="#22304A" font-size="16" font-weight="700" font-family="Arial, sans-serif" text-anchor="middle">Tamanhos</text>
    <text x="1020" y="654" fill="#22304A" font-size="16" font-weight="700" font-family="Arial, sans-serif" text-anchor="middle">Sabores</text>
    <text x="874" y="712" fill="#22304A" font-size="16" font-weight="700" font-family="Arial, sans-serif" text-anchor="middle">Adicionais</text>
    <text x="1336" y="540" fill="#8D97AE" font-size="14" letter-spacing="2" font-family="Arial, sans-serif">PREÇO</text>
    <text x="1278" y="592" fill="#0E1830" font-size="28" font-weight="700" font-family="Arial, sans-serif">R$ 19,90</text>
    <rect x="1180" y="626" width="94" height="44" rx="18" fill="#FFFFFF" stroke="#D7DDEC"/>
    <rect x="1286" y="626" width="108" height="44" rx="18" fill="url(#cta)"/>
    <rect x="1180" y="684" width="94" height="44" rx="18" fill="#FFFFFF" stroke="#D7DDEC"/>
    <text x="1227" y="654" fill="#22304A" font-size="16" font-weight="700" font-family="Arial, sans-serif" text-anchor="middle">Desativar</text>
    <text x="1340" y="654" fill="#FFFFFF" font-size="16" font-weight="700" font-family="Arial, sans-serif" text-anchor="middle">Editar</text>
    <text x="1227" y="712" fill="#22304A" font-size="16" font-weight="700" font-family="Arial, sans-serif" text-anchor="middle">Excluir</text>
  </g>

  <g>
    <rect x="676" y="730" width="720" height="196" rx="24" fill="#FFFFFF" stroke="#E7E9F0"/>
    <rect x="696" y="754" width="96" height="96" rx="22" fill="#FFF2DD"/>
    <circle cx="744" cy="802" r="34" fill="#C86A1D"/>
    <ellipse cx="744" cy="806" rx="34" ry="22" fill="#E48B34"/>
    <ellipse cx="744" cy="782" rx="34" ry="14" fill="#B6DE62"/>
    <text x="812" y="782" fill="#0E1830" font-size="22" font-weight="700" font-family="Arial, sans-serif">Pizza</text>
    <rect x="875" y="762" width="60" height="26" rx="13" fill="#F7E8FF"/>
    <rect x="949" y="762" width="58" height="26" rx="13" fill="#E6FAF0"/>
    <text x="905" y="780" fill="#A61FD2" font-size="14" font-family="Arial, sans-serif" text-anchor="middle">Pizzas</text>
    <text x="978" y="780" fill="#179D64" font-size="14" font-family="Arial, sans-serif" text-anchor="middle">Ativo</text>
    <text x="812" y="820" fill="#5D6D86" font-size="16" font-family="Arial, sans-serif">Suporte a categorias específicas, preços e organização visual do menu.</text>
    <rect x="812" y="842" width="132" height="44" rx="18" fill="#FFFFFF" stroke="#D7DDEC"/>
    <rect x="958" y="842" width="124" height="44" rx="18" fill="#FFFFFF" stroke="#D7DDEC"/>
    <text x="878" y="870" fill="#22304A" font-size="16" font-weight="700" font-family="Arial, sans-serif" text-anchor="middle">Tamanhos</text>
    <text x="1020" y="870" fill="#22304A" font-size="16" font-weight="700" font-family="Arial, sans-serif" text-anchor="middle">Sabores</text>
    <text x="1336" y="760" fill="#8D97AE" font-size="14" letter-spacing="2" font-family="Arial, sans-serif">PREÇO</text>
    <text x="1280" y="812" fill="#0E1830" font-size="28" font-weight="700" font-family="Arial, sans-serif">R$ 65,90</text>
    <rect x="1180" y="842" width="94" height="44" rx="18" fill="#FFFFFF" stroke="#D7DDEC"/>
    <rect x="1286" y="842" width="108" height="44" rx="18" fill="url(#cta)"/>
    <text x="1227" y="870" fill="#22304A" font-size="16" font-weight="700" font-family="Arial, sans-serif" text-anchor="middle">Desativar</text>
    <text x="1340" y="870" fill="#FFFFFF" font-size="16" font-weight="700" font-family="Arial, sans-serif" text-anchor="middle">Editar</text>
  </g>
</svg>
