<svg width="1600" height="900" viewBox="0 0 1600 900" fill="none" xmlns="http://www.w3.org/2000/svg">
  <defs>
    <linearGradient id="bg" x1="0" y1="0" x2="1600" y2="900" gradientUnits="userSpaceOnUse">
      <stop stop-color="#111B2A"/>
      <stop offset="1" stop-color="#091321"/>
    </linearGradient>
    <linearGradient id="cyan" x1="0" y1="0" x2="1" y2="1">
      <stop stop-color="#36D8F6"/>
      <stop offset="1" stop-color="#43BFE9"/>
    </linearGradient>
    <linearGradient id="violet" x1="0" y1="0" x2="1" y2="1">
      <stop stop-color="#8A7CFF"/>
      <stop offset="1" stop-color="#B28BFF"/>
    </linearGradient>
  </defs>
  <rect width="1600" height="900" rx="28" fill="url(#bg)"/>
  <rect x="0" y="0" width="1600" height="56" rx="28" fill="#1A2331"/>
  <circle cx="1544" cy="28" r="18" fill="#6FA8FF"/>
  <text x="32" y="38" fill="#8FA3C2" font-size="18" font-family="Arial, sans-serif">Dashboard</text>

  <text x="32" y="104" fill="url(#cyan)" font-size="24" font-weight="700" font-family="Arial, sans-serif">Dashboard Administrativo</text>
  <text x="32" y="132" fill="#83A4D8" font-size="14" font-family="Arial, sans-serif">Visão executiva da plataforma AgendaIdeal</text>

  <rect x="1298" y="92" width="168" height="32" rx="16" fill="url(#cyan)"/>
  <rect x="1476" y="92" width="100" height="32" rx="16" fill="#161F2D" stroke="#4A586E"/>
  <text x="1382" y="113" fill="#FAFCFF" font-size="14" font-weight="700" font-family="Arial, sans-serif" text-anchor="middle">Gerenciar assinaturas</text>
  <text x="1526" y="113" fill="#FAFCFF" font-size="14" font-weight="700" font-family="Arial, sans-serif" text-anchor="middle">Ver empresas</text>

  <g>
    <rect x="24" y="164" width="368" height="150" rx="20" fill="#181F2B" stroke="#364258"/>
    <rect x="412" y="164" width="368" height="150" rx="20" fill="#181F2B" stroke="#364258"/>
    <rect x="800" y="164" width="368" height="150" rx="20" fill="#181F2B" stroke="#364258"/>
    <rect x="1188" y="164" width="388" height="150" rx="20" fill="#181F2B" stroke="#364258"/>

    <circle cx="60" cy="200" r="18" fill="#173046"/>
    <circle cx="448" cy="200" r="18" fill="#173046"/>
    <circle cx="836" cy="200" r="18" fill="#173046"/>
    <circle cx="1224" cy="200" r="18" fill="#173046"/>

    <text x="44" y="250" fill="#51E6E1" font-size="24" font-weight="700" font-family="Arial, sans-serif">2</text>
    <text x="432" y="250" fill="#BBA6FF" font-size="24" font-weight="700" font-family="Arial, sans-serif">2</text>
    <text x="820" y="250" fill="#7FF4CB" font-size="24" font-weight="700" font-family="Arial, sans-serif">0.00</text>
    <text x="1208" y="250" fill="#F5A2B1" font-size="24" font-weight="700" font-family="Arial, sans-serif">0</text>

    <text x="44" y="274" fill="#F0F4FA" font-size="14" font-weight="700" font-family="Arial, sans-serif">Empresas ativas na base</text>
    <text x="432" y="274" fill="#F0F4FA" font-size="14" font-weight="700" font-family="Arial, sans-serif">Usuários cadastrados</text>
    <text x="820" y="274" fill="#F0F4FA" font-size="14" font-weight="700" font-family="Arial, sans-serif">Receita do mês</text>
    <text x="1208" y="274" fill="#F0F4FA" font-size="14" font-weight="700" font-family="Arial, sans-serif">Assinaturas bloqueadas</text>

    <text x="44" y="298" fill="#7085A5" font-size="12" font-family="Arial, sans-serif">Total de tenants cadastrados</text>
    <text x="432" y="298" fill="#7085A5" font-size="12" font-family="Arial, sans-serif">Contas administrativas e operacionais</text>
    <text x="820" y="298" fill="#7085A5" font-size="12" font-family="Arial, sans-serif">Receita acumulada: 0.00</text>
    <text x="1208" y="298" fill="#7085A5" font-size="12" font-family="Arial, sans-serif">Atraso + carência + expiradas</text>
  </g>

  <rect x="24" y="340" width="776" height="336" rx="22" fill="#181F2B" stroke="#364258"/>
  <rect x="818" y="340" width="758" height="336" rx="22" fill="#181F2B" stroke="#364258"/>

  <text x="44" y="380" fill="#F4F8FF" font-size="16" font-weight="700" font-family="Arial, sans-serif">Crescimento de receita e novos tenants</text>
  <rect x="682" y="360" width="98" height="24" rx="12" fill="#133B52"/>
  <text x="731" y="377" fill="#41D0F0" font-size="12" font-weight="700" font-family="Arial, sans-serif" text-anchor="middle">Últimos 6 meses</text>

  <g stroke="#283245">
    <line x1="92" y1="618" x2="760" y2="618"/>
    <line x1="92" y1="566" x2="760" y2="566" stroke-dasharray="4 6"/>
    <line x1="92" y1="514" x2="760" y2="514" stroke-dasharray="4 6"/>
    <line x1="92" y1="462" x2="760" y2="462" stroke-dasharray="4 6"/>
    <line x1="92" y1="410" x2="760" y2="410" stroke-dasharray="4 6"/>
    <line x1="92" y1="410" x2="92" y2="618"/>
  </g>
  <path d="M92 618C180 618 254 618 352 618C450 618 546 618 632 618C690 618 724 575 760 410" stroke="url(#violet)" stroke-width="3" fill="none"/>
  <path d="M92 618H760" stroke="url(#cyan)" stroke-width="2"/>
  <text x="96" y="640" fill="#97AACC" font-size="12" font-family="Arial, sans-serif">Oct</text>
  <text x="220" y="640" fill="#97AACC" font-size="12" font-family="Arial, sans-serif">Nov</text>
  <text x="348" y="640" fill="#97AACC" font-size="12" font-family="Arial, sans-serif">Dec</text>
  <text x="480" y="640" fill="#97AACC" font-size="12" font-family="Arial, sans-serif">Jan</text>
  <text x="612" y="640" fill="#97AACC" font-size="12" font-family="Arial, sans-serif">Feb</text>
  <text x="748" y="640" fill="#97AACC" font-size="12" font-family="Arial, sans-serif">Mar</text>

  <text x="838" y="380" fill="#F4F8FF" font-size="16" font-weight="700" font-family="Arial, sans-serif">Distribuição de assinaturas</text>
  <rect x="1488" y="360" width="84" height="24" rx="12" fill="#163B33"/>
  <text x="1530" y="377" fill="#52E09D" font-size="12" font-weight="700" font-family="Arial, sans-serif" text-anchor="middle">100% ativas</text>
  <circle cx="1200" cy="510" r="92" stroke="#2BC9EA" stroke-width="32"/>
  <circle cx="1200" cy="510" r="52" fill="#181F2B"/>
  <g fill="#97AACC" font-size="12" font-family="Arial, sans-serif">
    <rect x="932" y="624" width="14" height="14" fill="#2BC9EA"/><text x="952" y="636">Ativas</text>
    <rect x="1006" y="624" width="14" height="14" fill="#9D7EFF"/><text x="1026" y="636">Trial</text>
    <rect x="1078" y="624" width="14" height="14" fill="#FF7FA0"/><text x="1098" y="636">Em atraso</text>
    <rect x="1176" y="624" width="14" height="14" fill="#FFBA39"/><text x="1196" y="636">Carência</text>
    <rect x="1274" y="624" width="14" height="14" fill="#FF8F2F"/><text x="1294" y="636">Expiradas</text>
    <rect x="1388" y="624" width="14" height="14" fill="#8B97AB"/><text x="1408" y="636">Canceladas</text>
  </g>

  <rect x="24" y="702" width="776" height="158" rx="22" fill="#181F2B" stroke="#364258"/>
  <rect x="818" y="702" width="758" height="158" rx="22" fill="#181F2B" stroke="#364258"/>
  <text x="44" y="742" fill="#F4F8FF" font-size="16" font-weight="700" font-family="Arial, sans-serif">Assinaturas recentes</text>
  <rect x="46" y="760" width="728" height="62" rx="14" fill="#242D39" stroke="#44516A"/>
  <text x="66" y="788" fill="#F0F4FA" font-size="16" font-weight="700" font-family="Arial, sans-serif">Jupiter Tech</text>
  <text x="66" y="810" fill="#8EA1C0" font-size="13" font-family="Arial, sans-serif">Trial 7 dias • Ativa</text>
  <rect x="718" y="774" width="52" height="24" rx="12" fill="#1D5C43"/>
  <text x="744" y="790" fill="#5AE7A6" font-size="12" font-weight="700" font-family="Arial, sans-serif" text-anchor="middle">Ativa</text>
  <text x="628" y="810" fill="#7D90AE" font-size="12" font-family="Arial, sans-serif">Atualizado em 16/03/2026</text>

  <text x="838" y="742" fill="#F4F8FF" font-size="16" font-weight="700" font-family="Arial, sans-serif">Trials com vencimento próximo</text>
  <text x="838" y="788" fill="#7D90AE" font-size="15" font-family="Arial, sans-serif">Nenhum trial pendente.</text>
</svg>
